# xmcd
# 
# Track frame offsets:
#     150
#     18137
#     32342
#     48108
#     63130
#     80018
#     93947
#     108858
#     126357
#     147192
#     165023
#     178607
#     196441
#     209085
# 
# Disc length: 3069
# 
# Revision: 3
# Processed by: cddbd v1.5.2PL0 Copyright (c) Steve Scherf et al.
# Submitted via: fre:ac v1.0.31
# 
DISCID=ac0bfb0e
DTITLE=Ringo Starr - Live At Soundstage
DYEAR=2007
DGENRE=Rock/Pop
TTITLE0=With A Little Help From My Friends - It Don't Come Easy
TTITLE1=Octopus's Garden
TTITLE2=Choose Love
TTITLE3=I Wanna Be Your Man
TTITLE4=Don't Pass Me By
TTITLE5=I'm The Greatest
TTITLE6=Memphis On Your Mind
TTITLE7=Photograph
TTITLE8=Never Without You
TTITLE9=Back Off Bugaloo
TTITLE10=Boys
TTITLE11=Yellow Submarine
TTITLE12=Act Naturally
TTITLE13=With A Little Help From My Friends
EXTD=
EXTT0=
EXTT1=
EXTT2=
EXTT3=
EXTT4=
EXTT5=
EXTT6=
EXTT7=
EXTT8=
EXTT9=
EXTT10=
EXTT11=
EXTT12=
EXTT13=
PLAYORDER=
